<?xml version="1.0" encoding="UTF-8"?><svg id="uuid-b4bcba09-93eb-45ef-8a6a-d466418c3dee" xmlns="http://www.w3.org/2000/svg" xmlns:xlink="http://www.w3.org/1999/xlink" viewBox="0 0 999.9998816463 167.5735572855"><defs><filter id="uuid-fa0fc9e1-dbd8-4544-940b-6e8c6c800e47" x="867.0257661147" y="34.5973701804" width="133.1917144505" height="133.193806949" color-interpolation-filters="sRGB" filterUnits="userSpaceOnUse"><feFlood flood-color="#fff" result="bg"/><feBlend in="SourceGraphic" in2="bg"/></filter><filter id="uuid-958d83eb-d4b6-4fff-98f3-2f01cee0723a" x="867.0257661147" y="-8275.7867786428" width="133.1917144505" height="32766" color-interpolation-filters="sRGB" filterUnits="userSpaceOnUse"><feFlood flood-color="#fff" result="bg"/><feBlend in="SourceGraphic" in2="bg"/></filter><mask id="uuid-e7cc4331-67d6-42e4-b8c8-f2d837959907" x="867.0257661147" y="-8275.7867786428" width="133.1917144505" height="32766" maskUnits="userSpaceOnUse"/><linearGradient id="uuid-340dc6aa-5629-4657-98b5-55e80ed63828" x1="840.4456454057" y1="221.1375292978" x2="933.3002686806" y2="68.9061315917" gradientTransform="translate(0 169.5735572855) scale(1 -1)" gradientUnits="userSpaceOnUse"><stop offset="0" stop-color="#fff"/><stop offset="1" stop-color="#000"/></linearGradient><mask id="uuid-df3a826c-9ade-4d83-8921-5176993eb8fd" x="867.0257661147" y="34.5973701804" width="133.1917144505" height="133.193806949" maskUnits="userSpaceOnUse"><g style="filter:url(#uuid-fa0fc9e1-dbd8-4544-940b-6e8c6c800e47);"><g style="mask:url(#uuid-e7cc4331-67d6-42e4-b8c8-f2d837959907);"><rect x="867.0257661147" y="34.5973701804" width="133.1917144505" height="133.193806949" style="fill:url(#uuid-340dc6aa-5629-4657-98b5-55e80ed63828); mix-blend-mode:multiply;"/></g></g></mask><linearGradient id="uuid-47bc35df-8e51-4d68-abc8-86e1c3635c76" x1="840.4456454057" y1="221.1375292978" x2="933.3002686806" y2="68.9061315917" gradientTransform="translate(0 169.5735572855) scale(1 -1)" gradientUnits="userSpaceOnUse"><stop offset="0" stop-color="#fff"/><stop offset="1" stop-color="#fff"/></linearGradient><mask id="uuid-3447d8fd-5c99-49e3-b88c-5cefd38aa896" x="867.0257661147" y="34.5973701804" width="133.1917144505" height="133.193806949" maskUnits="userSpaceOnUse"><g id="uuid-2b53e3e2-3de1-4f50-90bc-dba527d44d63"><g style="mask:url(#uuid-df3a826c-9ade-4d83-8921-5176993eb8fd);"><rect x="867.0257661147" y="34.5973701804" width="133.1917144505" height="133.193806949" style="fill:url(#uuid-47bc35df-8e51-4d68-abc8-86e1c3635c76);"/></g></g></mask><linearGradient id="uuid-3bc13567-d0bf-40e5-9a57-766869a6da79" x1="933.6216529228" y1="-46.5710201399" x2="933.6216529228" y2="203.221391224" gradientTransform="translate(0 169.5735572855) scale(1 -1)" gradientUnits="userSpaceOnUse"><stop offset="0" stop-color="#c63027"/><stop offset="1" stop-color="#fdf166"/></linearGradient><filter id="uuid-599c47a8-0f20-4973-993a-ea4b47eaea01" x="867.0257661147" y="34.5973701804" width="133.1917144505" height="133.1917144505" color-interpolation-filters="sRGB" filterUnits="userSpaceOnUse"><feFlood flood-color="#fff" result="bg"/><feBlend in="SourceGraphic" in2="bg"/></filter><filter id="uuid-4e8614cf-d761-45a5-b804-39f49d298cd3" x="867.0257661147" y="-8275.7867786428" width="133.1917144505" height="32766" color-interpolation-filters="sRGB" filterUnits="userSpaceOnUse"><feFlood flood-color="#fff" result="bg"/><feBlend in="SourceGraphic" in2="bg"/></filter><mask id="uuid-a4ef3734-8e27-4f22-95de-95b7e1123020" x="867.0257661147" y="-8275.7867786428" width="133.1917144505" height="32766" maskUnits="userSpaceOnUse"/><linearGradient id="uuid-a4510e24-8268-4244-bbf1-31301aea17fd" x1="1113.6583763062" y1="248.4145905087" x2="963.8086688321" y2="98.5669574778" xlink:href="#uuid-340dc6aa-5629-4657-98b5-55e80ed63828"/><mask id="uuid-fe8a9900-c06e-4bdd-a26d-c51d123baad5" x="867.0257661147" y="34.5973701804" width="133.1917144505" height="133.1917144505" maskUnits="userSpaceOnUse"><g style="filter:url(#uuid-599c47a8-0f20-4973-993a-ea4b47eaea01);"><g style="mask:url(#uuid-a4ef3734-8e27-4f22-95de-95b7e1123020);"><rect x="867.0257661147" y="34.5973701804" width="133.1917144505" height="133.1917144505" style="fill:url(#uuid-a4510e24-8268-4244-bbf1-31301aea17fd); mix-blend-mode:multiply;"/></g></g></mask><linearGradient id="uuid-f153521a-8219-41d9-bc6e-8d6d1f9c4144" x1="1113.6583763062" y1="248.4145905087" x2="963.8086688321" y2="98.5669574778" xlink:href="#uuid-47bc35df-8e51-4d68-abc8-86e1c3635c76"/><mask id="uuid-0f01b23e-c4d4-4a8b-9651-913b74f44c78" x="867.0257661147" y="34.5973701804" width="133.1917144505" height="133.1917144505" maskUnits="userSpaceOnUse"><g id="uuid-6ef99275-ad68-4110-98f4-790b3912bd5f"><g style="mask:url(#uuid-fe8a9900-c06e-4bdd-a26d-c51d123baad5);"><rect x="867.0257661147" y="34.5973701804" width="133.1917144505" height="133.1917144505" style="fill:url(#uuid-f153521a-8219-41d9-bc6e-8d6d1f9c4144);"/></g></g></mask><filter id="uuid-ae146f60-82e1-47e4-8c8e-bf6b26a81341" x="867.0257661147" y="75.9409555212" width="133.1917144505" height="91.8481291097" color-interpolation-filters="sRGB" filterUnits="userSpaceOnUse"><feFlood flood-color="#fff" result="bg"/><feBlend in="SourceGraphic" in2="bg"/></filter><filter id="uuid-530247e7-f9b1-4f0f-8eaa-bc33fe00a01f" x="867.0257661147" y="-8275.7867786428" width="133.1917144505" height="32766" color-interpolation-filters="sRGB" filterUnits="userSpaceOnUse"><feFlood flood-color="#fff" result="bg"/><feBlend in="SourceGraphic" in2="bg"/></filter><mask id="uuid-034f5304-937c-48e0-a64e-247a16b5fb40" x="867.0257661147" y="-8275.7867786428" width="133.1917144505" height="32766" maskUnits="userSpaceOnUse"/><linearGradient id="uuid-f6da95cd-db0f-47bc-a83a-209e26c1f39f" x1="933.6216233399" y1="-1459.0783904609" x2="933.6216233399" y2="233.7561075341" xlink:href="#uuid-340dc6aa-5629-4657-98b5-55e80ed63828"/><mask id="uuid-7f1c805f-e470-49c2-b4cb-9acc71d8149a" x="867.0257661147" y="75.9409555212" width="133.1917144505" height="91.8481291097" maskUnits="userSpaceOnUse"><g style="filter:url(#uuid-ae146f60-82e1-47e4-8c8e-bf6b26a81341);"><g style="mask:url(#uuid-034f5304-937c-48e0-a64e-247a16b5fb40);"><rect x="867.0257661147" y="75.9409555212" width="133.1917144505" height="91.8481291097" style="fill:url(#uuid-f6da95cd-db0f-47bc-a83a-209e26c1f39f); mix-blend-mode:multiply;"/></g></g></mask><linearGradient id="uuid-c0529e03-9427-45d3-b280-9079a9ef827f" x1="933.6216233399" y1="-1459.0783904609" x2="933.6216233399" y2="233.7561075341" xlink:href="#uuid-47bc35df-8e51-4d68-abc8-86e1c3635c76"/><mask id="uuid-f5da20f8-5270-40fa-9026-2759b52e00bb" x="867.0257661147" y="75.9409555212" width="133.1917144505" height="91.8481291097" maskUnits="userSpaceOnUse"><g id="uuid-a29e7168-3144-4717-8708-b4344c74bd18"><g style="mask:url(#uuid-7f1c805f-e470-49c2-b4cb-9acc71d8149a);"><rect x="867.0257661147" y="75.9409555212" width="133.1917144505" height="91.8481291097" style="fill:url(#uuid-c0529e03-9427-45d3-b280-9079a9ef827f);"/></g></g></mask><filter id="uuid-ccaff818-634c-4c98-83d2-c71ad4a4bcb4" x="871.5330078813" y="80.9106394561" width="46.1354069032" height="45.5139189443" color-interpolation-filters="sRGB" filterUnits="userSpaceOnUse"><feFlood flood-color="#fff" result="bg"/><feBlend in="SourceGraphic" in2="bg"/></filter><filter id="uuid-25f55d8d-8493-485b-9adf-f9f301148cbb" x="871.5330078813" y="-8275.7867786428" width="46.1354069032" height="32766" color-interpolation-filters="sRGB" filterUnits="userSpaceOnUse"><feFlood flood-color="#fff" result="bg"/><feBlend in="SourceGraphic" in2="bg"/></filter><mask id="uuid-b287fc9e-bbb2-4cb4-aed5-c600f568eb4b" x="871.5330078813" y="-8275.7867786428" width="46.1354069032" height="32766" maskUnits="userSpaceOnUse"/><linearGradient id="uuid-211dbd9c-18dc-44a0-9776-ae0374f089ec" x1="874.9990304525" y1="-7.2495320444" x2="894.8924012902" y2="66.994575298" xlink:href="#uuid-340dc6aa-5629-4657-98b5-55e80ed63828"/><mask id="uuid-4f06e36d-8512-4254-9db6-4affffdf17c1" x="871.5330078813" y="80.9106394561" width="46.1354069032" height="45.5139189443" maskUnits="userSpaceOnUse"><g style="filter:url(#uuid-ccaff818-634c-4c98-83d2-c71ad4a4bcb4);"><g style="mask:url(#uuid-b287fc9e-bbb2-4cb4-aed5-c600f568eb4b);"><rect x="871.5330078813" y="80.9106394561" width="46.1354069032" height="45.5139189443" style="fill:url(#uuid-211dbd9c-18dc-44a0-9776-ae0374f089ec); mix-blend-mode:multiply;"/></g></g></mask><linearGradient id="uuid-dbd9816b-d9aa-428e-b8a1-9089341dcb8f" x1="874.9990304525" y1="-7.2495320444" x2="894.8924012902" y2="66.994575298" xlink:href="#uuid-47bc35df-8e51-4d68-abc8-86e1c3635c76"/><mask id="uuid-656350c1-2099-4c65-a268-9044594b72cb" x="871.5330078813" y="80.9106394561" width="46.1354069032" height="45.5139189443" maskUnits="userSpaceOnUse"><g id="uuid-4fae876e-91c1-45bf-bfc1-cf27d09ea925"><g style="mask:url(#uuid-4f06e36d-8512-4254-9db6-4affffdf17c1);"><rect x="871.5330078813" y="80.9106394561" width="46.1354069032" height="45.5139189443" style="fill:url(#uuid-dbd9816b-d9aa-428e-b8a1-9089341dcb8f);"/></g></g></mask><filter id="uuid-9f7b25df-42b4-4d2d-aad9-a9cedd97de57" x="894.408201471" y="-.2176198439" width="105.8092790942" height="168.0067044748" color-interpolation-filters="sRGB" filterUnits="userSpaceOnUse"><feFlood flood-color="#fff" result="bg"/><feBlend in="SourceGraphic" in2="bg"/></filter><filter id="uuid-4cf71a76-4011-448c-8a34-3b51eb6d1dd2" x="894.408201471" y="-8275.7867786428" width="105.8092790942" height="32766" color-interpolation-filters="sRGB" filterUnits="userSpaceOnUse"><feFlood flood-color="#fff" result="bg"/><feBlend in="SourceGraphic" in2="bg"/></filter><mask id="uuid-916278f7-c4f9-4b75-874c-0b6a5eb07467" x="894.408201471" y="-8275.7867786428" width="105.8092790942" height="32766" maskUnits="userSpaceOnUse"/><linearGradient id="uuid-2384bf29-e424-4e91-b0a9-677d45d461a6" x1="947.3128410181" y1="-764.5075469913" x2="947.3128410181" y2="176.9029009298" xlink:href="#uuid-340dc6aa-5629-4657-98b5-55e80ed63828"/><mask id="uuid-dd2b3ef1-f18f-4d05-a42d-39fddfaf1317" x="894.408201471" y="-.2176198439" width="105.8092790942" height="168.0067044748" maskUnits="userSpaceOnUse"><g style="filter:url(#uuid-9f7b25df-42b4-4d2d-aad9-a9cedd97de57);"><g style="mask:url(#uuid-916278f7-c4f9-4b75-874c-0b6a5eb07467);"><rect x="894.408201471" y="-.2176198439" width="105.8092790942" height="168.0067044748" style="fill:url(#uuid-2384bf29-e424-4e91-b0a9-677d45d461a6); mix-blend-mode:multiply;"/></g></g></mask><linearGradient id="uuid-251b052c-a9bd-4ef8-a56a-447c8dfcc800" x1="947.3128410181" y1="-764.5075469913" x2="947.3128410181" y2="176.9029009298" xlink:href="#uuid-47bc35df-8e51-4d68-abc8-86e1c3635c76"/><mask id="uuid-b9929de4-a0b8-41ac-8a38-e786cb3f5337" x="894.408201471" y="-.2176198439" width="105.8092790942" height="168.0067044748" maskUnits="userSpaceOnUse"><g id="uuid-0bf7b019-5626-4275-a126-487af3ee1a90"><g style="mask:url(#uuid-dd2b3ef1-f18f-4d05-a42d-39fddfaf1317);"><rect x="894.408201471" y="-.2176198439" width="105.8092790942" height="168.0067044748" style="fill:url(#uuid-251b052c-a9bd-4ef8-a56a-447c8dfcc800);"/></g></g></mask><filter id="uuid-dd6f55e2-6f86-42c2-b1df-e952ee1bd01d" x="917.4152224661" y="-.2176198439" width="82.802258099" height="167.9230045349" color-interpolation-filters="sRGB" filterUnits="userSpaceOnUse"><feFlood flood-color="#fff" result="bg"/><feBlend in="SourceGraphic" in2="bg"/></filter><filter id="uuid-2bbd3cb7-171e-4b73-af62-e2ca38ff93ad" x="917.4152224661" y="-8275.7867786428" width="82.802258099" height="32766" color-interpolation-filters="sRGB" filterUnits="userSpaceOnUse"><feFlood flood-color="#fff" result="bg"/><feBlend in="SourceGraphic" in2="bg"/></filter><mask id="uuid-e0482468-3433-4630-92b0-c84a4b24d117" x="917.4152224661" y="-8275.7867786428" width="82.802258099" height="32766" maskUnits="userSpaceOnUse"/><linearGradient id="uuid-2d0f4ca7-95f9-484c-868b-7537c3069321" x1="958.8163515157" y1="552.0830100234" x2="958.8163515157" y2="5.5792709948" xlink:href="#uuid-340dc6aa-5629-4657-98b5-55e80ed63828"/><mask id="uuid-b146b645-7b5e-45ec-a394-374fc94023cf" x="917.4152224661" y="-.2176198439" width="82.802258099" height="167.9230045349" maskUnits="userSpaceOnUse"><g style="filter:url(#uuid-dd6f55e2-6f86-42c2-b1df-e952ee1bd01d);"><g style="mask:url(#uuid-e0482468-3433-4630-92b0-c84a4b24d117);"><rect x="917.4152224661" y="-.2176198439" width="82.802258099" height="167.9230045349" style="fill:url(#uuid-2d0f4ca7-95f9-484c-868b-7537c3069321); mix-blend-mode:multiply;"/></g></g></mask><linearGradient id="uuid-d5818628-dc90-417c-9717-756594b18022" x1="958.8163515157" y1="552.0830100234" x2="958.8163515157" y2="5.5792709948" xlink:href="#uuid-47bc35df-8e51-4d68-abc8-86e1c3635c76"/><mask id="uuid-d8f0f0ed-ae73-4198-a7ea-d2e12ed6b714" x="917.4152224661" y="-.2176198439" width="82.802258099" height="167.9230045349" maskUnits="userSpaceOnUse"><g id="uuid-20bbf519-e65b-4063-9dca-157d69f3a4f1"><g style="mask:url(#uuid-b146b645-7b5e-45ec-a394-374fc94023cf);"><rect x="917.4152224661" y="-.2176198439" width="82.802258099" height="167.9230045349" style="fill:url(#uuid-d5818628-dc90-417c-9717-756594b18022);"/></g></g></mask><linearGradient id="uuid-3e137c83-0622-4c70-af0f-e38025fbdf42" x1="911.4948677751" y1="56.6000670549" x2="774.0764563821" y2="135.9392634398" xlink:href="#uuid-3bc13567-d0bf-40e5-9a57-766869a6da79"/><filter id="uuid-837bb879-5062-411a-8dcb-8698c48cbeba" x="867.0257661147" y="94.160339951" width="24.6287073318" height="31.5946348345" color-interpolation-filters="sRGB" filterUnits="userSpaceOnUse"><feFlood flood-color="#fff" result="bg"/><feBlend in="SourceGraphic" in2="bg"/></filter><filter id="uuid-d83869fc-aebe-4753-abac-cc528c0bb140" x="867.0257661147" y="-8275.7867786428" width="24.6287073318" height="32766" color-interpolation-filters="sRGB" filterUnits="userSpaceOnUse"><feFlood flood-color="#fff" result="bg"/><feBlend in="SourceGraphic" in2="bg"/></filter><mask id="uuid-a4d563ea-a790-4f38-83e3-c837a2a8674c" x="867.0257661147" y="-8275.7867786428" width="24.6287073318" height="32766" maskUnits="userSpaceOnUse"/><linearGradient id="uuid-f3aa5aee-78ca-4ab1-947d-35127ae95f89" x1="879.3401197806" y1="-1459.0813262362" x2="879.3401197806" y2="233.7497298079" xlink:href="#uuid-340dc6aa-5629-4657-98b5-55e80ed63828"/><mask id="uuid-9747d1b2-5c30-45dd-b453-47180125679d" x="867.0257661147" y="94.160339951" width="24.6287073318" height="31.5946348345" maskUnits="userSpaceOnUse"><g style="filter:url(#uuid-837bb879-5062-411a-8dcb-8698c48cbeba);"><g style="mask:url(#uuid-a4d563ea-a790-4f38-83e3-c837a2a8674c);"><rect x="867.0257661147" y="94.160339951" width="24.6287073318" height="31.5946348345" style="fill:url(#uuid-f3aa5aee-78ca-4ab1-947d-35127ae95f89); mix-blend-mode:multiply;"/></g></g></mask><linearGradient id="uuid-f9135c2a-cae4-4b01-b659-286234b0fdab" x1="879.3401197806" y1="-1459.0813262362" x2="879.3401197806" y2="233.7497298079" xlink:href="#uuid-47bc35df-8e51-4d68-abc8-86e1c3635c76"/><mask id="uuid-2f04bed4-e33c-4c5d-94c4-709bbecff8f8" x="867.0257661147" y="94.160339951" width="24.6287073318" height="31.5946348345" maskUnits="userSpaceOnUse"><g id="uuid-73b77761-6631-4c05-9930-77220fd7280c"><g style="mask:url(#uuid-9747d1b2-5c30-45dd-b453-47180125679d);"><rect x="867.0257661147" y="94.160339951" width="24.6287073318" height="31.5946348345" style="fill:url(#uuid-f9135c2a-cae4-4b01-b659-286234b0fdab);"/></g></g></mask><filter id="uuid-be6fc07a-e9cd-477d-9833-0d18ed1b341a" x="887.2267466229" y="80.8583269936" width="30.3265807442" height="43.578357883" color-interpolation-filters="sRGB" filterUnits="userSpaceOnUse"><feFlood flood-color="#fff" result="bg"/><feBlend in="SourceGraphic" in2="bg"/></filter><filter id="uuid-e1e61a1a-02c6-4c94-8fb5-3da6fa2ec053" x="887.2267466229" y="-8275.7867786428" width="30.3265807442" height="32766" color-interpolation-filters="sRGB" filterUnits="userSpaceOnUse"><feFlood flood-color="#fff" result="bg"/><feBlend in="SourceGraphic" in2="bg"/></filter><mask id="uuid-43fd3704-f8c9-44b6-86b7-402a6978a67d" x="887.2267466229" y="-8275.7867786428" width="30.3265807442" height="32766" maskUnits="userSpaceOnUse"/><linearGradient id="uuid-a2b584be-f370-403b-9f96-8a395099d3fd" x1="984.1266866725" y1="88.8271740972" x2="878.2942888401" y2="60.4696582869" xlink:href="#uuid-340dc6aa-5629-4657-98b5-55e80ed63828"/><mask id="uuid-2fcb7035-5047-4102-8b8d-36d5608f9604" x="887.2267466229" y="80.8583269936" width="30.3265807442" height="43.578357883" maskUnits="userSpaceOnUse"><g style="filter:url(#uuid-be6fc07a-e9cd-477d-9833-0d18ed1b341a);"><g style="mask:url(#uuid-43fd3704-f8c9-44b6-86b7-402a6978a67d);"><rect x="887.2267466229" y="80.8583269936" width="30.3265807442" height="43.578357883" style="fill:url(#uuid-a2b584be-f370-403b-9f96-8a395099d3fd); mix-blend-mode:multiply;"/></g></g></mask><linearGradient id="uuid-0f8adca5-a49d-40fc-87d7-e04483239b03" x1="984.1266866725" y1="88.8271740972" x2="878.2942888401" y2="60.4696582869" xlink:href="#uuid-47bc35df-8e51-4d68-abc8-86e1c3635c76"/><mask id="uuid-fa87d5b1-c94f-4b62-a459-fc82f87e20a4" x="887.2267466229" y="80.8583269936" width="30.3265807442" height="43.578357883" maskUnits="userSpaceOnUse"><g id="uuid-d2faa4c1-ebb3-49fb-bb7a-af7fea816383"><g style="mask:url(#uuid-2fcb7035-5047-4102-8b8d-36d5608f9604);"><rect x="887.2267466229" y="80.8583269936" width="30.3265807442" height="43.578357883" style="fill:url(#uuid-0f8adca5-a49d-40fc-87d7-e04483239b03);"/></g></g></mask><filter id="uuid-2b727c86-ea22-4d4f-b6bb-16014e32eccd" x="868.3796126435" y="80.8583269936" width="49.1737147236" height="44.8966477919" color-interpolation-filters="sRGB" filterUnits="userSpaceOnUse"><feFlood flood-color="#fff" result="bg"/><feBlend in="SourceGraphic" in2="bg"/></filter><filter id="uuid-9e7d6f13-c4b8-4719-b164-3bf43a5f9b92" x="868.3796126435" y="-8275.7867786428" width="49.1737147236" height="32766" color-interpolation-filters="sRGB" filterUnits="userSpaceOnUse"><feFlood flood-color="#fff" result="bg"/><feBlend in="SourceGraphic" in2="bg"/></filter><mask id="uuid-606a1cf8-907a-4139-9014-6e94d04a62eb" x="868.3796126435" y="-8275.7867786428" width="49.1737147236" height="32766" maskUnits="userSpaceOnUse"/><linearGradient id="uuid-1d8cea61-574b-449c-a361-86fdaecb2d15" x1="941.0178538304" y1="114.319805544" x2="873.748305823" y2="47.04813616" xlink:href="#uuid-340dc6aa-5629-4657-98b5-55e80ed63828"/><mask id="uuid-63a54d1a-4bba-4896-9545-73f1bf918f1b" x="868.3796126435" y="80.8583269936" width="49.1737147236" height="44.8966477919" maskUnits="userSpaceOnUse"><g style="filter:url(#uuid-2b727c86-ea22-4d4f-b6bb-16014e32eccd);"><g style="mask:url(#uuid-606a1cf8-907a-4139-9014-6e94d04a62eb);"><rect x="868.3796126435" y="80.8583269936" width="49.1737147236" height="44.8966477919" style="fill:url(#uuid-1d8cea61-574b-449c-a361-86fdaecb2d15); mix-blend-mode:multiply;"/></g></g></mask><linearGradient id="uuid-29e5f19c-f7a9-4b43-b96b-1e1e0fa67660" x1="941.0178538304" y1="114.319805544" x2="873.748305823" y2="47.04813616" xlink:href="#uuid-47bc35df-8e51-4d68-abc8-86e1c3635c76"/><mask id="uuid-f0db03b0-4388-46f5-9b2f-888077959fee" x="868.3796126435" y="80.8583269936" width="49.1737147236" height="44.8966477919" maskUnits="userSpaceOnUse"><g id="uuid-2457a5ec-c52d-42da-8e7f-cbf82da7aa9b"><g style="mask:url(#uuid-63a54d1a-4bba-4896-9545-73f1bf918f1b);"><rect x="868.3796126435" y="80.8583269936" width="49.1737147236" height="44.8966477919" style="fill:url(#uuid-29e5f19c-f7a9-4b43-b96b-1e1e0fa67660);"/></g></g></mask><linearGradient id="uuid-8c34ed9e-a5e4-426a-bfcb-fe1f457add25" x1="968.4981936266" y1="10.9728239252" x2="968.5003803223" y2="324.193918667" xlink:href="#uuid-3bc13567-d0bf-40e5-9a57-766869a6da79"/><filter id="uuid-b06690c5-01b8-4797-b274-995b11739d4c" x="936.7792035748" y="37.4557231299" width="63.4382769904" height="130.2496864634" color-interpolation-filters="sRGB" filterUnits="userSpaceOnUse"><feFlood flood-color="#fff" result="bg"/><feBlend in="SourceGraphic" in2="bg"/></filter><filter id="uuid-d07f72bc-e1d9-4c11-9eed-e971f87744d1" x="936.7792035748" y="-8275.7867786428" width="63.4382769904" height="32766" color-interpolation-filters="sRGB" filterUnits="userSpaceOnUse"><feFlood flood-color="#fff" result="bg"/><feBlend in="SourceGraphic" in2="bg"/></filter><mask id="uuid-8f22c940-5c6f-41a7-b6f0-0cdcc237afbf" x="936.7792035748" y="-8275.7867786428" width="63.4382769904" height="32766" maskUnits="userSpaceOnUse"/><linearGradient id="uuid-1d78f03d-438d-4de7-b706-afd74bf915c6" x1="1131.7906253597" y1="230.2830136781" x2="981.9403476808" y2="80.4348104505" xlink:href="#uuid-340dc6aa-5629-4657-98b5-55e80ed63828"/><mask id="uuid-aabe8e0b-9542-4775-89f0-68cbf6937925" x="936.7792035748" y="37.4557231299" width="63.4382769904" height="130.2496864634" maskUnits="userSpaceOnUse"><g style="filter:url(#uuid-b06690c5-01b8-4797-b274-995b11739d4c);"><g style="mask:url(#uuid-8f22c940-5c6f-41a7-b6f0-0cdcc237afbf);"><rect x="936.7792035748" y="37.4557231299" width="63.4382769904" height="130.2496864634" style="fill:url(#uuid-1d78f03d-438d-4de7-b706-afd74bf915c6); mix-blend-mode:multiply;"/></g></g></mask><linearGradient id="uuid-11a7499b-6a00-4b17-b8a3-c3e7a68e5e0c" x1="1131.7906253597" y1="230.2830136781" x2="981.9403476808" y2="80.4348104505" xlink:href="#uuid-47bc35df-8e51-4d68-abc8-86e1c3635c76"/><mask id="uuid-923c9de8-9949-40de-aba4-d4880e182b84" x="936.7792035748" y="37.4557231299" width="63.4382769904" height="130.2496864634" maskUnits="userSpaceOnUse"><g id="uuid-e9081fb6-856d-4557-aadf-de84f8d7e678"><g style="mask:url(#uuid-aabe8e0b-9542-4775-89f0-68cbf6937925);"><rect x="936.7792035748" y="37.4557231299" width="63.4382769904" height="130.2496864634" style="fill:url(#uuid-11a7499b-6a00-4b17-b8a3-c3e7a68e5e0c);"/></g></g></mask><filter id="uuid-5319c042-8cd2-48c1-bc0e-a641db5c6661" x="936.7792035748" y="75.9409555212" width="63.4382769904" height="91.7644291697" color-interpolation-filters="sRGB" filterUnits="userSpaceOnUse"><feFlood flood-color="#fff" result="bg"/><feBlend in="SourceGraphic" in2="bg"/></filter><filter id="uuid-a1e9b88a-0d8f-4eee-b9e6-8bf4f3b5afc7" x="936.7792035748" y="-8275.7867786428" width="63.4382769904" height="32766" color-interpolation-filters="sRGB" filterUnits="userSpaceOnUse"><feFlood flood-color="#fff" result="bg"/><feBlend in="SourceGraphic" in2="bg"/></filter><mask id="uuid-3cf38cc7-2810-405c-9885-de284a5dd404" x="936.7792035748" y="-8275.7867786428" width="63.4382769904" height="32766" maskUnits="userSpaceOnUse"/><linearGradient id="uuid-abfb2746-4ba9-4a96-8338-29d4b2abe7f6" x1="968.49834207" y1="-1459.0765984452" x2="968.49834207" y2="233.7568851065" xlink:href="#uuid-340dc6aa-5629-4657-98b5-55e80ed63828"/><mask id="uuid-d110cd6a-7726-4148-8d2b-20962abdd98b" x="936.7792035748" y="75.9409555212" width="63.4382769904" height="91.7644291697" maskUnits="userSpaceOnUse"><g style="filter:url(#uuid-5319c042-8cd2-48c1-bc0e-a641db5c6661);"><g style="mask:url(#uuid-3cf38cc7-2810-405c-9885-de284a5dd404);"><rect x="936.7792035748" y="75.9409555212" width="63.4382769904" height="91.7644291697" style="fill:url(#uuid-abfb2746-4ba9-4a96-8338-29d4b2abe7f6); mix-blend-mode:multiply;"/></g></g></mask><linearGradient id="uuid-0247e2e7-c0f7-4329-9a8f-d830558a7d89" x1="968.49834207" y1="-1459.0765984452" x2="968.49834207" y2="233.7568851065" xlink:href="#uuid-47bc35df-8e51-4d68-abc8-86e1c3635c76"/><mask id="uuid-46609910-ac57-4ef4-8a5c-5b703d0e429f" x="936.7792035748" y="75.9409555212" width="63.4382769904" height="91.7644291697" maskUnits="userSpaceOnUse"><g id="uuid-68f99a1b-2b89-49b3-b2a6-0d13b87b2851"><g style="mask:url(#uuid-d110cd6a-7726-4148-8d2b-20962abdd98b);"><rect x="936.7792035748" y="75.9409555212" width="63.4382769904" height="91.7644291697" style="fill:url(#uuid-0247e2e7-c0f7-4329-9a8f-d830558a7d89);"/></g></g></mask><filter id="uuid-996c3b6a-1e84-4ec7-a70e-aaa773897251" x="936.7792035748" y="-.2176198439" width="46.6104249875" height="167.9230045349" color-interpolation-filters="sRGB" filterUnits="userSpaceOnUse"><feFlood flood-color="#fff" result="bg"/><feBlend in="SourceGraphic" in2="bg"/></filter><filter id="uuid-86e63be7-be0c-44dd-ab58-9e7496549ae2" x="936.7792035748" y="-8275.7867786428" width="46.6104249875" height="32766" color-interpolation-filters="sRGB" filterUnits="userSpaceOnUse"><feFlood flood-color="#fff" result="bg"/><feBlend in="SourceGraphic" in2="bg"/></filter><mask id="uuid-f5315b81-708d-4207-a670-c839781dbb5c" x="936.7792035748" y="-8275.7867786428" width="46.6104249875" height="32766" maskUnits="userSpaceOnUse"/><linearGradient id="uuid-af413db8-6598-4be5-b8c3-82df190fa5f9" x1="960.0844160685" y1="-365.2417414594" x2="960.0844160685" y2="167.3646897139" xlink:href="#uuid-340dc6aa-5629-4657-98b5-55e80ed63828"/><mask id="uuid-f7e00c58-05f4-46dd-8905-3c4d7be15770" x="936.7792035748" y="-.2176198439" width="46.6104249875" height="167.9230045349" maskUnits="userSpaceOnUse"><g style="filter:url(#uuid-996c3b6a-1e84-4ec7-a70e-aaa773897251);"><g style="mask:url(#uuid-f5315b81-708d-4207-a670-c839781dbb5c);"><rect x="936.7792035748" y="-.2176198439" width="46.6104249875" height="167.9230045349" style="fill:url(#uuid-af413db8-6598-4be5-b8c3-82df190fa5f9); mix-blend-mode:multiply;"/></g></g></mask><linearGradient id="uuid-c2a09a80-451d-4ee3-8b95-de86775ea82a" x1="960.0844160685" y1="-365.2417414594" x2="960.0844160685" y2="167.3646897139" xlink:href="#uuid-47bc35df-8e51-4d68-abc8-86e1c3635c76"/><mask id="uuid-65cc89ac-63a3-4941-8a50-7b8331562159" x="936.7792035748" y="-.2176198439" width="46.6104249875" height="167.9230045349" maskUnits="userSpaceOnUse"><g id="uuid-6c311752-9ced-41b5-aaf9-3aff7f81e40e"><g style="mask:url(#uuid-f7e00c58-05f4-46dd-8905-3c4d7be15770);"><rect x="936.7792035748" y="-.2176198439" width="46.6104249875" height="167.9230045349" style="fill:url(#uuid-c2a09a80-451d-4ee3-8b95-de86775ea82a);"/></g></g></mask><filter id="uuid-95408176-7107-45bd-8800-4aaf9de89a2b" x="936.7792035748" y="-.2176198439" width="42.6262869206" height="167.9230045349" color-interpolation-filters="sRGB" filterUnits="userSpaceOnUse"><feFlood flood-color="#fff" result="bg"/><feBlend in="SourceGraphic" in2="bg"/></filter><filter id="uuid-097baaad-110b-4add-84a2-420dfadde8b1" x="936.7792035748" y="-8275.7867786428" width="42.6262869206" height="32766" color-interpolation-filters="sRGB" filterUnits="userSpaceOnUse"><feFlood flood-color="#fff" result="bg"/><feBlend in="SourceGraphic" in2="bg"/></filter><mask id="uuid-b87a37b6-6392-4664-91bd-a6d74988ae65" x="936.7792035748" y="-8275.7867786428" width="42.6262869206" height="32766" maskUnits="userSpaceOnUse"/><linearGradient id="uuid-f93f9f09-c360-4406-a5d8-2a405eebcb3f" x1="931.9396391808" y1="-11.776285273" x2="977.202372011" y2="157.1512506764" xlink:href="#uuid-340dc6aa-5629-4657-98b5-55e80ed63828"/><mask id="uuid-c200db3e-d121-426a-9da7-1d12c014f020" x="936.7792035748" y="-.2176198439" width="42.6262869206" height="167.9230045349" maskUnits="userSpaceOnUse"><g style="filter:url(#uuid-95408176-7107-45bd-8800-4aaf9de89a2b);"><g style="mask:url(#uuid-b87a37b6-6392-4664-91bd-a6d74988ae65);"><rect x="936.7792035748" y="-.2176198439" width="42.6262869206" height="167.9230045349" style="fill:url(#uuid-f93f9f09-c360-4406-a5d8-2a405eebcb3f); mix-blend-mode:multiply;"/></g></g></mask><linearGradient id="uuid-430b1c37-244e-44a0-9ac8-62dcc3e91519" x1="931.9396391808" y1="-11.776285273" x2="977.202372011" y2="157.1512506764" xlink:href="#uuid-47bc35df-8e51-4d68-abc8-86e1c3635c76"/><mask id="uuid-2ad6eb50-5823-462c-9f7a-89b9fd0b5ca4" x="936.7792035748" y="-.2176198439" width="42.6262869206" height="167.9230045349" maskUnits="userSpaceOnUse"><g id="uuid-14242698-f0a2-4d4a-841b-c376861cc562"><g style="mask:url(#uuid-c200db3e-d121-426a-9da7-1d12c014f020);"><rect x="936.7792035748" y="-.2176198439" width="42.6262869206" height="167.9230045349" style="fill:url(#uuid-430b1c37-244e-44a0-9ac8-62dcc3e91519);"/></g></g></mask><filter id="uuid-3d4e4720-626e-478f-9eca-6f4c771e4cc2" x="936.7792035748" y="98.4918118436" width="63.1997321616" height="69.2135728473" color-interpolation-filters="sRGB" filterUnits="userSpaceOnUse"><feFlood flood-color="#fff" result="bg"/><feBlend in="SourceGraphic" in2="bg"/></filter><filter id="uuid-95eeff13-94c8-4a69-b30a-2a5a785bba20" x="936.7792035748" y="-8275.7867786428" width="63.1997321616" height="32766" color-interpolation-filters="sRGB" filterUnits="userSpaceOnUse"><feFlood flood-color="#fff" result="bg"/><feBlend in="SourceGraphic" in2="bg"/></filter><mask id="uuid-5d02697b-60a2-4119-8cec-4083f974551a" x="936.7792035748" y="-8275.7867786428" width="63.1997321616" height="32766" maskUnits="userSpaceOnUse"/><linearGradient id="uuid-923fe0dd-76c3-48aa-9084-09e9461e2c98" x1="968.3790696555" y1="-159.2084226787" x2="968.3790696555" y2="122.6237088699" xlink:href="#uuid-340dc6aa-5629-4657-98b5-55e80ed63828"/><mask id="uuid-e6601052-c421-4d2f-a991-89039a42aa42" x="936.7792035748" y="98.4918118436" width="63.1997321616" height="69.2135728473" maskUnits="userSpaceOnUse"><g style="filter:url(#uuid-3d4e4720-626e-478f-9eca-6f4c771e4cc2);"><g style="mask:url(#uuid-5d02697b-60a2-4119-8cec-4083f974551a);"><rect x="936.7792035748" y="98.4918118436" width="63.1997321616" height="69.2135728473" style="fill:url(#uuid-923fe0dd-76c3-48aa-9084-09e9461e2c98); mix-blend-mode:multiply;"/></g></g></mask><linearGradient id="uuid-cea86e9a-9e9b-423c-89f4-6289705bffff" x1="968.3790696555" y1="-159.2084226787" x2="968.3790696555" y2="122.6237088699" xlink:href="#uuid-47bc35df-8e51-4d68-abc8-86e1c3635c76"/><mask id="uuid-8fc34d1b-9d7a-47cd-aa89-49f7ef5ee62b" x="936.7792035748" y="98.4918118436" width="63.1997321616" height="69.2135728473" maskUnits="userSpaceOnUse"><g id="uuid-ac0aa744-2474-49ca-9773-295c20aadb37"><g style="mask:url(#uuid-e6601052-c421-4d2f-a991-89039a42aa42);"><rect x="936.7792035748" y="98.4918118436" width="63.1997321616" height="69.2135728473" style="fill:url(#uuid-cea86e9a-9e9b-423c-89f4-6289705bffff);"/></g></g></mask></defs><g><g style="mask:url(#uuid-3447d8fd-5c99-49e3-b88c-5cefd38aa896);"><path d="m933.6216233399,34.8149900243c36.6605737003,0,66.3782373814,29.7197561795,66.3782373814,66.3782373814,0,36.6605575068-29.717663681,66.3803298799-66.3782373814,66.3803298799s-66.3782373814-29.719772373-66.3782373814-66.3803298799c0-36.6584812018,29.717663681-66.3782373814,66.3782373814-66.3782373814Z" style="fill:#861619;"/></g><path d="m979.1878706515,0c-12.7412233597,16.5767731081,4.3607668717,39.5503141273,13.5280027952,63.8400367022,4.0657455083,10.7742747707,7.2840081996,22.8814501602,7.2840081996,37.3531907034,0,36.1395253938-28.5667895067,64.5975042596-63.0030373027,66.2945374414-38.0227946339,1.874878655-69.7534201443-28.3303371763-69.7534201443-66.2945374414,0-11.5568482843,2.9545868808-22.423192989,8.1502814472-31.8875846244-1.6384472082,3.4777325051-2.5779580855,6.1917030582-2.5779580855,10.4122725304,0,12.3038911734,9.9749191672,22.2788524425,22.2809025282,22.2788524425,11.8477262013,0,21.5443849252-9.24886429,22.2390944092-20.9207999918C920.0601774752,35.2565281326,940.7863591251,1.3078324868,979.1878915765.000020925l-.000020925-.000020925Z" style="fill:url(#uuid-3bc13567-d0bf-40e5-9a57-766869a6da79);"/><g style="mask:url(#uuid-0f01b23e-c4d4-4a8b-9651-913b74f44c78);"><path d="m984.9610740099,143.2713052392l-.1946232854.2364523244c-.2322673334.2824617837-.4708121622.5586970851-.7072644926.8369993784-.1276424084.1485419009-.2531713934.2971347793-.3829063003.4436096706-.1653283064.1904173586-.3327072613.3787422187-.5001280662.5649491134-.2113423484.2364523304-.4226846968.4729046607-.6361195437.7051719941l-.2238764144.2406373274c-8.7068862538,9.3723259828-20.0545056132,16.1896608858-32.7141215314,19.3325936311l-.033479976.0083949485c-.4729046607.117179913-.9458302465.2280573819-1.4229199042.3347997514l-.2992272853.0648674518c-.3996881383.0879058597-.7972628531.1715848726-1.1990016399.253192312-.1778623724.0334799751-.3557247448.0669350139-.5336080422.1004399254-.3285013393.0627749534-.6591370271.1255249744-.98975179.1841398632-.2636548109.0460100361-.5273096217.0878849347-.7909644326.1318274021-.2552848169.0418250425-.5105487087.0836999378-.7679469491.1213399854-.3327072613.050219964-.6675070211.0962549309-1.0002352074.1402223203-.1987664324.0272024798-.3954822163.056497458-.5942486487.0816074394-.3996881383.0502199627-.7993344266.0941375136-1.2010941384.136012399-.1402183244.0167399876-.2783023004.0334799751-.4184996998.0481274643-.4289831173.0418250558-.860016883.0795149409-1.2910924988.1129949161-.1234364864.0104834172-.2469148229.0230174829-.3703722343.0335009001-.3661872373.0272024798-.7344669731.0481065393-1.1027467089.0690315237-.1966948589.0125759157-.3933897178.0272024798-.5900845767.0355933986-.5942695737.0292949782-1.1864466489.0523124611-1.7765312255.0648674518h-.0062774955c-17.0873476365.3954822063-32.806195963-5.6811332809-44.8150445446-15.9825031307l-.1213649099-.1025324239c-.328522256-.2824872902-.6528595152-.5712520758-.9751042758-.8600168613-.0857924363-.0795149409-.1757698695-.154844885-.2615623057-.234359826-.2322673275-.2092498446-.4603496581-.4226846861-.6884319887-.6361195276-.1757698695-.1653073772-.3536322374-.3264506826-.5273096084-.4917371348l-.0334799751-.0334799751c-9.2027872406-8.7864009748-15.8841557037-20.1905175056-18.8471335033-33.0175329797l-.0083490688-.0334799751c-.1192933364-.5189239822-.2322673275-1.0399561084-.3389847483-1.5630807332l-.0209249845-.1067174234c-.1025324239-.4980146427-.1966948539-.9960292855-.2866722871-1.4982289252l-.0418499689-.2343598319c-.0816074394-.4645346667-.1590298819-.9290693335-.2301748291-1.3956964988l-.0502199627-.3389847568c-.0627749534-.4352396878-.1255499068-.872571874-.1820473648-1.3099040603-.018832486-.1464748949-.0334799751-.2929497898-.0523124611-.4373321863-.0502199627-.4122222043-.098347427-.8244444086-.1422898943-1.2387591113-.0167399876-.1799548709-.0313874767-.3620022403-.0481274643-.5440496097-.0355515486-.3745572313-.0711449472-.7512069611-.1004190004-1.1299491894-.0209249845-.2657473094-.0355724736-.5356796157-.0523124612-.8035194236-.0209249845-.2992272853-.0418708939-.5984545707-.0586108815-.8997743545-.0167399876-.3473547508-.0272024798-.6968020001-.0397574705-1.0462492494-.0083699938-.2259898379-.018832486-.4519796758-.0272024798-.6779695136-.0146474891-.5796220842-.0209249845-1.1592441684-.0209249845-1.7430512496,0-.5649745947.0062984203-1.1278566909.0209249845-1.6907387871l.0020924984-.0523124625c.0125549907-.5440496097.0334799751-1.0860067209.0606824549-1.6279847571l.0041849969-.0962549309c.0292949782-.5314946187.0627749534-1.0608967389.1025324239-1.5882063606l.0062774953-.1025324264c.0418708939-.5273096217.0878849347-1.0546192434.1401973959-1.5798363667l.0104624922-.0857924385c.0523124612-.5273096217.1129949161-1.0525267449.1799548664-1.5756513697l.0104624922-.087884937c.0669599503-.5356796157.1422898943-1.0692667329.2238973337-1.6007613516l.0083699938-.0523124625c.079514941-.5189396277.1653073772-1.0336942584.2552638854-1.5463563907l.0272234048-.1527523904c.0878640098-.4854596517.1820264398-.9709193035.2783022933-1.4521939582l.037664972-.1820473694c.098326502-.4708121622.1987873524-.9416243245.3075763466-1.4082514897l.0481274643-.2092498499c.1046249223-.4540721743.2155273399-.90605185.3306147545-1.3559390273l.0627749534-.2490073214c.1150874145-.4373321863.2322673275-.8746643725.3536322374-1.3078115618l.0920699316-.3222238438c.1192724114-.4184996998.2427298197-.8328144026.3703722249-1.2450575318l.1088308442-.3515188228c.1255289818-.3996672133.2552638854-.7993553516.389183786-1.1969091414l.1255499068-.3703722343c.1318274021-.3850406488.2678607261-.7700394476.4059446985-1.1529666729l.1422898943-.3850406488c.136012399-.3682797358.2741172964-.7323744746.4164071908-1.0964692134l.1611223803-.4080372073c.1422898943-.3557247448.2866722871-.7114494896.4352396768-1.0650817359.0669808753-.1611223844.136033324-.3243372673.2050648477-.4854596517.136033324-.3159672733.2741172964-.6319345467.4143146923-.9458093215.0878849347-.1987873574.1778623679-.3954822163.2678398011-.5921770752.1255499068-.2762307268.2552848104-.5524405287.385040639-.826557832.1025324239-.2155273454.2050439227-.4289412673.309668845-.6423970392.1297349037-.2657473094.2615623058-.5314736937.3955031313-.7951494296.1067174207-.2113423484.2155273399-.4226846968.3243163341-.6340270452.136033324-.2615623124.272024798-.5210321262.4101506204-.7805019401.1067174207-.1966948589.2134348415-.3933897178.3201522622-.5879920782-1.6384262832,3.4777325051-2.5779580855,6.1917239832-2.5779580855,10.4122725304,0,12.3038911734,9.9749400922,22.2788524425,22.2809234532,22.2788524425,11.8477262013,0,21.5443640002-9.248843365,22.2390734843-20.9207999918,1.0378792292-17.4556224776,4.691381516-33.1849336937,10.9353968789-46.0454294678,1.7660686884-.1422898979,3.5488773644-.2155273454,5.3505185265-.2155273454,36.6605789864,0,66.3782426675,29.7197561795,66.3782426675,66.3782373814,0,15.972046296-5.641355028,30.623720415-15.0387657864,42.0780569085l.000020925-.000020925Z" style="fill:#861619;"/></g><g style="mask:url(#uuid-f5da20f8-5270-40fa-9026-2759b52e00bb);"><path d="m996.6978771651,76.1585753651c1.9983569914,7.5643820734,3.3019835562,15.8192886515,3.3019835562,25.0346520406,0,36.1395672437-28.5667895067,64.5975461095-63.0030373027,66.2945374414-38.0227902231,1.874878655-69.7534374601-28.3303371763-69.7534374601-66.2945374414,0-2.2996558503.1171799159-4.5742017185.3452795593-6.8152676108,10.5189896881,23.7749679442,34.3106805791,40.3664142768,61.9818807282,40.3664142768,34.3065128891,0,62.6536109783-25.5033765143,67.127330919-58.5857777816v-.000020925Z" style="fill:#861619;"/></g><g style="mask:url(#uuid-656350c1-2099-4c65-a268-9044594b72cb);"><path d="m871.7506277252,125.2967176142h0c23.8691303767,2.3603642208,45.559969816-12.6972808912,45.5829872995-44.1684583143h.0020924985c.6884320061,12.3059836719-1.7053862766,22.8438061122-7.3383922356,30.3391357352-2.5444618747,3.3835700727-5.666485935,6.3904904156-9.4245967652,8.8868411247-7.1207888654,4.7332316045-19.4748830371,7.3509472266-28.8220735954,4.9424814543h-.0000172019Z" style="fill:#f7f5bc;"/></g><g style="mask:url(#uuid-b9929de4-a0b8-41ac-8a38-e786cb3f5337);"><path d="m979.1878706515,0c-12.7412233597,16.5767731081,4.3607668717,39.5503141273,13.5280027952,63.8400367022,4.0657455083,10.7742747707,7.2840081996,22.8814501602,7.2840081996,37.3531907034,0,36.1395253938-28.5667895067,64.5975042596-63.0030373027,66.2945374414-15.8255711186.7805019401-30.558852677-4.0008571299-42.3710064047-12.5821934737,29.4623781199-9.8075404642,44.7941405914-31.8980471169,43.2038208073-77.8827941282-1.0880992194-31.4941949066,3.0780652918-69.7304199766,41.3582328303-77.0227772452h-.000020925Z" style="fill:#861619;"/></g><g style="mask:url(#uuid-d8f0f0ed-ae73-4198-a7ea-d2e12ed6b714);"><path d="m979.1878706515,0c-12.7412233597,16.5767731081,4.3607668717,39.5503141273,13.5280027952,63.8400367022,4.0657455083,10.7742747707,7.2840081996,22.8814501602,7.2840081996,37.3531907034,0,36.1395253938-28.5667895067,64.5975042596-63.0030373027,66.2945374414,11.219976951-7.428369671,17.1731351803-15.5702813301,21.1991232171-26.9032532001,9.0102985362-25.3631952299-3.4191425472-59.7659421249-6.4449163015-87.7489245504-2.2787308653-21.0965698657-27.3908104024-12.7726108371-34.1181929064,24.1055827071,3.701650676-43.7122936415,24.3169508626-75.6731157134,61.5550332236-76.9411698037h-.000020925Z" style="fill:#f7f5bc;"/></g><path d="m871.7506277252,125.2967176142c-2.9064804149-7.4618234848-4.5072417666-15.5849078946-4.5072417666-24.1034902086,0-11.5568482843,2.9546078804-22.423192989,8.1502816531-31.8875846244-1.6384263246,3.4777325051-2.5779581506,6.1917030582-2.5779581506,10.4122725304,0,12.3038911734,9.9749403441,22.2788524425,22.280924016,22.2788524425,11.8477265006,0,21.5443645444-9.24886429,22.2390740461-20.9207999918,0,31.5088423961-21.7033778318,46.5811140726-45.5850625961,44.2207498518h-.0000172019Z" style="fill:url(#uuid-3e137c83-0622-4c70-af0f-e38025fbdf42);"/><g style="mask:url(#uuid-2f04bed4-e33c-4c5d-94c4-709bbecff8f8);"><path d="m871.7506277252,125.2967176142c-2.9064804149-7.4618234848-4.5072417666-15.5849078946-4.5072417666-24.1034902086,0-2.2996558503.1171799159-4.5742017185.3452795593-6.8152676108,5.1433611803,11.6238291613,13.4568575063,21.5297170549,23.8481880847,28.6191019691-6.0661531482,2.2055193939-12.7851658281,2.9818103609-19.6862258774,2.2996558503Z" style="fill:#861619;"/></g><g style="mask:url(#uuid-fa87d5b1-c94f-4b62-a459-fc82f87e20a4);"><path d="m890.2357594642,101.463159712c13.3857128973,2.9797178624,26.2859661429-6.7231976769,27.0999480589-20.3872128746,0,24.3566825269-12.9713981945,38.88911071-29.891366101,43.1431340498,7.9682593283-2.9169168328,13.6117023913-8.2779240616,13.8879121862-12.6324134377.2845797887-4.4988717726-3.5509445572-8.1000616892-11.0965192592-10.1235077376h.0000251151Z" style="fill:#861619;"/></g><g style="mask:url(#uuid-f0db03b0-4388-46f5-9b2f-888077959fee);"><path d="m871.7506277252,125.2967176142c-1.3371065408-3.4316975382-2.3980032797-7.0056588236-3.1533952378-10.6905748308,21.8917192952,5.4907160611,47.493438429-8.7884936953,48.7384750358-33.530195946,0,31.5088423961-21.7033944303,46.5811349975-45.5851044461,44.2207707768h.0000246481Z" style="fill:#861619;"/></g><path d="m979.1878706515,0c-12.7412233597,16.5767731081,4.3607668717,39.5503141273,13.5280027952,63.8400367022,4.0657455083,10.7742747707,7.2840081996,22.8814501602,7.2840081996,37.3531907034,0,36.1395253938-28.5667895067,64.5975042596-63.0030373027,66.2945374414C1004.9779355751,128.2387705037,910.9808057929,28.4349621012,979.1878915765.000020925l-.000020925-.000020925Z" style="fill:url(#uuid-8c34ed9e-a5e4-426a-bfcb-fe1f457add25);"/><g style="mask:url(#uuid-923c9de8-9949-40de-aba4-d4880e182b84);"><path d="m984.9610740099,143.2713052392l-.1946232854.2364523244c-.2322673334.2824617837-.4708121622.5586970851-.7072644926.8369993784-.1276424084.1485419009-.2531713934.2971347793-.3829063003.4436096706-.1653283064.1904173586-.3327072613.3787422187-.5001280662.5649491134-.2113423484.2364523304-.4226846968.4729046607-.6361195437.7051719941l-.2238764144.2406373274c-8.7068862538,9.3723259828-20.0545056132,16.1896608858-32.7141215314,19.3325936311l-.033479976.0083949485c-.4729046607.117179913-.9458302465.2280573819-1.4229199042.3347997514l-.2992272853.0648674518c-.3996881383.0879058597-.7972628531.1715848726-1.1990016399.253192312-.1778623724.0334799751-.3557247448.0669350139-.5336080422.1004399254-.3285013393.0627749534-.6591370271.1255249744-.98975179.1841398632-.2636548109.0460100361-.5273096217.0878849347-.7909644326.1318274021-.2552848169.0418250425-.5105487087.0836999378-.7679469491.1213399854-.3327072613.050219964-.6675070211.0962549309-1.0002352074.1402223203-.1987664324.0272024798-.3954822163.056497458-.5942486487.0816074394-.3996881383.0502199627-.7993344266.0941375136-1.2010941384.136012399-.1402183244.0167399876-.2783023004.0334799751-.4184996998.0481274643-.4289831173.0418250558-.860016883.0795149409-1.2910924988.1129949161-.1234364864.0104834172-.2469148229.0230174829-.3703722343.0335009001-.3661872373.0272024798-.7344669731.0481065393-1.1027467089.0690315237-.1966948589.0125759157-.3933897178.0272024798-.5900845767.0355933986,48.9874823572-28.2822299213,13.8690800506-88.0063058486,15.9406535644-129.8144258562,27.2380529599,8.2737181396,47.0623837382,33.580394985,47.0623837382,63.5198844319,0,15.972046296-5.641355028,30.623720415-15.0387867114,42.0780569085l.000062775-.000020925Z" style="fill:#861619;"/></g><g style="mask:url(#uuid-46609910-ac57-4ef4-8a5c-5b703d0e429f);"><path d="m996.6978771651,76.1585753651c1.9983569914,7.5643820734,3.3019835562,15.8192886515,3.3019835562,25.0346520406,0,36.1395672437-28.5667895067,64.5975461095-63.0030373027,66.2945374414,18.0226895708-10.4059698642,24.6559098123-25.070224515,25.9532588816-41.5276992518,17.9954870903-10.2113977065,30.8580753629-28.4224121422,33.7478367149-49.8014693052l-.00004185-.000020925Z" style="fill:#861619;"/></g><g style="mask:url(#uuid-65cc89ac-63a3-4941-8a50-7b8331562159);"><path d="m936.9968234186,167.4877648471C1004.9779146501,128.2387705037,910.9807895821,28.4349621012,979.1878706515.000020925c-25.8590755241,17.1940392403-5.9803397848,61.0465302812,1.1299491894,85.7359409945,9.8473188607,34.1977081513-6.0828722113,73.3085966058-43.3209964222,81.7518029276Z" style="fill:#861619;"/></g><g style="mask:url(#uuid-2ad6eb50-5823-462c-9f7a-89b9fd0b5ca4);"><path d="m979.1878706515,0c-2.789279574,3.6304848956-4.1494035983,7.5664745719-4.4737617906,11.7556565667-41.2138504339,33.534380943,26.2001737044,123.9596110734-37.7172854423,155.7321082804C1004.9779146501,128.2387705037,910.9807895821,28.4349621012,979.1878706515.000020925v-.000020925Z" style="fill:#861619;"/></g><g style="mask:url(#uuid-8fc34d1b-9d7a-47cd-aa89-49f7ef5ee62b);"><path d="m999.7613158924,106.8471583496c-2.797670493,33.4129997758-30.1466258733,59.0335676503-62.7645133988,60.6406064974,27.5519277347-15.9071735885,28.4977370562-41.7599925421,24.4173649834-68.7783331596,5.0345723133,8.6085597494,5.469812001,21.5778445204,8.4118439655,28.6567669421,5.2061362652,12.5277885128,26.3696660828,3.6095599106,29.9352625999-20.519019355l.00004185-.000020925Z" style="fill:#861619;"/></g></g><text transform="translate(.0001182556 137.1462680837)" style="fill:#fff; font-family:Mismo-Bold, Mismo; font-size:66.3782730103px; font-weight:700;"><tspan x="0" y="0" style="letter-spacing:.4272461755em;">A</tspan><tspan x="87.21875" y="0" style="letter-spacing:.4999974139em;">URELIUS AI</tspan></text></svg>